<svg width="16" height="16" viewBox="0 0 16 16" fill="none" xmlns="http://www.w3.org/2000/svg">
<path d="M0.888889 0C0.499556 0 0 0.291556 0 0.888889C0 4.92356 1.63626 8.77618 4.41493 11.5851C7.22382 14.3637 11.0764 16 15.1111 16C15.7084 16 16 15.5004 16 15.1111V11.9913C16 11.5069 15.6164 11.1123 15.1319 11.1007C14.5719 11.0874 13.8672 11.0539 13.4219 10.9757C12.9401 10.8904 12.3594 10.7261 11.9514 10.599C11.6314 10.4994 11.2842 10.5865 11.0469 10.8229L9.07639 12.783C7.71461 12.0657 6.62321 11.2292 5.69965 10.3003C4.77076 9.37679 3.93435 8.28539 3.21701 6.92361L5.17708 4.95312C5.41353 4.71579 5.5006 4.36688 5.40104 4.04688C5.27482 3.63976 5.10875 3.0599 5.02431 2.57812C4.94519 2.13279 4.91353 1.42806 4.89931 0.868056C4.88775 0.383611 4.49312 0 4.00868 0H0.888889ZM8 0V1.77778C11.4364 1.77778 14.2222 4.56356 14.2222 8H16C16 3.58133 12.4187 0 8 0ZM8 3.55556V5.33333C9.47289 5.33333 10.6667 6.52711 10.6667 8H12.4444C12.4444 5.54578 10.4542 3.55556 8 3.55556Z" fill="white"/>
</svg>
