<svg width="16" height="16" viewBox="0 0 16 16" fill="none" xmlns="http://www.w3.org/2000/svg">
<path d="M8 0.666992C5.79067 0.666992 4 2.45766 4 4.66699C4 7.52433 8 12.0003 8 12.0003C8 12.0003 12 7.52433 12 4.66699C12 2.45766 10.2093 0.666992 8 0.666992ZM8 3.23861C8.78933 3.23861 9.42838 3.87766 9.42838 4.66699C9.42838 5.45566 8.78867 6.09538 8 6.09538C7.21133 6.09538 6.57161 5.45633 6.57161 4.66699C6.57161 3.87766 7.21067 3.23861 8 3.23861ZM3.20052 10.0003L1.33333 14.667H14.6667L12.7995 10.0003H11.2083C10.885 10.4877 10.5604 10.939 10.2617 11.3337H11.8984L12.6979 13.3337H3.30208L4.10156 11.3337H5.73828C5.43961 10.939 5.115 10.4877 4.79167 10.0003H3.20052Z" fill="white"/>
</svg>
