<svg width="10" height="10" viewBox="0 0 10 10" fill="none" xmlns="http://www.w3.org/2000/svg">
<path d="M4.99992 0.833008C2.70367 0.833008 0.833252 2.70342 0.833252 4.99967C0.833252 7.29593 2.70367 9.16634 4.99992 9.16634C7.29617 9.16634 9.16658 7.29593 9.16658 4.99967C9.16658 2.70342 7.29617 0.833008 4.99992 0.833008ZM4.99992 1.66634C6.8458 1.66634 8.33325 3.15379 8.33325 4.99967C8.33325 6.84556 6.8458 8.33301 4.99992 8.33301C3.15403 8.33301 1.66659 6.84556 1.66659 4.99967C1.66659 3.15379 3.15403 1.66634 4.99992 1.66634ZM4.99992 2.49967C4.33688 2.49967 3.70099 2.76307 3.23215 3.23191C2.76331 3.70075 2.49992 4.33663 2.49992 4.99967C2.49992 5.66272 2.76331 6.2986 3.23215 6.76744C3.70099 7.23628 4.33688 7.49967 4.99992 7.49967C5.66296 7.49967 6.29884 7.23628 6.76769 6.76744C7.23653 6.2986 7.49992 5.66272 7.49992 4.99967C7.49992 4.33663 7.23653 3.70075 6.76769 3.23191C6.29884 2.76307 5.66296 2.49967 4.99992 2.49967Z" fill="white"/>
</svg>
