<svg width="48" height="48" viewBox="0 0 48 48" fill="none" xmlns="http://www.w3.org/2000/svg">
<circle cx="24" cy="24" r="24" transform="rotate(-90 24 24)" fill="url(#paint0_linear_222_11)"/>
<path d="M16.8889 16C16.4996 16 16 16.2916 16 16.8889C16 20.9236 17.6363 24.7762 20.4149 27.5851C23.2238 30.3637 27.0764 32 31.1111 32C31.7084 32 32 31.5004 32 31.1111V27.9913C32 27.5069 31.6164 27.1123 31.1319 27.1007C30.5719 27.0874 29.8672 27.0539 29.4219 26.9757C28.9401 26.8904 28.3594 26.7261 27.9514 26.599C27.6314 26.4994 27.2842 26.5865 27.0469 26.8229L25.0764 28.783C23.7146 28.0657 22.6232 27.2292 21.6997 26.3003C20.7708 25.3768 19.9343 24.2854 19.217 22.9236L21.1771 20.9531C21.4135 20.7158 21.5006 20.3669 21.401 20.0469C21.2748 19.6398 21.1087 19.0599 21.0243 18.5781C20.9452 18.1328 20.9135 17.4281 20.8993 16.8681C20.8878 16.3836 20.4931 16 20.0087 16H16.8889ZM24 16V17.7778C27.4364 17.7778 30.2222 20.5636 30.2222 24H32C32 19.5813 28.4187 16 24 16ZM24 19.5556V21.3333C25.4729 21.3333 26.6667 22.5271 26.6667 24H28.4444C28.4444 21.5458 26.4542 19.5556 24 19.5556Z" fill="white"/>
<defs>
<linearGradient id="paint0_linear_222_11" x1="24" y1="0" x2="24" y2="48" gradientUnits="userSpaceOnUse">
<stop stop-color="#1070BF"/>
<stop offset="1" stop-color="#1C9BEF"/>
</linearGradient>
</defs>
</svg>
