<svg width="48" height="48" viewBox="0 0 48 48" fill="none" xmlns="http://www.w3.org/2000/svg">
<circle cx="24" cy="24" r="24" transform="rotate(-90 24 24)" fill="url(#paint0_linear_222_13)"/>
<g clip-path="url(#clip0_222_13)">
<path d="M17.9048 15C16.8573 15 16 15.8573 16 16.9048V29.0952C16 30.1427 16.8573 31 17.9048 31H30.0952C31.1427 31 32 30.1427 32 29.0952V16.9048C32 15.8573 31.1427 15 30.0952 15H17.9048ZM17.9048 15.7619H20.4115C19.051 17.1774 18.2857 19.0069 18.2857 20.9048C18.2857 22.8705 19.0896 24.7523 20.5372 26.1771C20.5829 26.2571 20.6209 26.6493 20.4457 27.1027C20.3352 27.3884 20.1142 27.7616 19.6875 27.9025C19.5237 27.9559 19.4171 28.1165 19.4286 28.2879C19.44 28.4594 19.566 28.6041 19.7336 28.6384C20.827 28.8555 21.535 28.5276 22.1064 28.2686C22.6207 28.0324 22.9602 27.8722 23.4821 28.0856C24.5488 28.5008 25.6838 28.7143 26.8571 28.7143C28.4166 28.7143 29.9167 28.3336 31.2381 27.6146V29.0952C31.2381 29.7309 30.7309 30.2381 30.0952 30.2381H17.9048C17.2691 30.2381 16.7619 29.7309 16.7619 29.0952V16.9048C16.7619 16.2691 17.2691 15.7619 17.9048 15.7619ZM27.0476 19.1905C27.2571 19.1905 27.4286 19.3619 27.4286 19.5714V23C27.4286 23.2095 27.2571 23.381 27.0476 23.381C26.8381 23.381 26.6667 23.2095 26.6667 23V19.5714C26.6667 19.3619 26.8381 19.1905 27.0476 19.1905ZM21.3333 19.5714H23.2381C23.3752 19.5714 23.5051 19.6474 23.5737 19.7693C23.6384 19.8874 23.6341 20.0359 23.5618 20.154L22.0193 22.619H23.2381C23.4476 22.619 23.619 22.7905 23.619 23C23.619 23.2095 23.4476 23.381 23.2381 23.381H21.3333C21.1962 23.381 21.0663 23.3049 20.9978 23.183C20.933 23.0649 20.9373 22.9165 21.0097 22.7984L22.5521 20.3333H21.3333C21.1238 20.3333 20.9524 20.1619 20.9524 19.9524C20.9524 19.7429 21.1238 19.5714 21.3333 19.5714ZM24.9524 20.7143C25.1848 20.7143 25.4017 20.7787 25.596 20.8854C25.6646 20.7864 25.7714 20.7143 25.9048 20.7143C26.1143 20.7143 26.2857 20.8857 26.2857 21.0952V23C26.2857 23.2095 26.1143 23.381 25.9048 23.381C25.7714 23.381 25.6646 23.3089 25.596 23.2098C25.4017 23.3165 25.1848 23.381 24.9524 23.381C24.2171 23.381 23.619 22.7829 23.619 22.0476C23.619 21.3124 24.2171 20.7143 24.9524 20.7143ZM29.1429 20.7143C29.8781 20.7143 30.4762 21.3124 30.4762 22.0476C30.4762 22.7829 29.8781 23.381 29.1429 23.381C28.4076 23.381 27.8095 22.7829 27.8095 22.0476C27.8095 21.3124 28.4076 20.7143 29.1429 20.7143ZM24.9524 21.4762C24.9129 21.4762 24.8743 21.4805 24.8371 21.4881C24.7626 21.5033 24.6932 21.5326 24.6324 21.5737C24.5717 21.6147 24.5195 21.6669 24.4784 21.7277C24.4374 21.7885 24.4081 21.8578 24.3929 21.9323C24.3853 21.9695 24.381 22.0081 24.381 22.0476C24.381 22.0871 24.3853 22.1257 24.3929 22.1629C24.4005 22.2002 24.4112 22.2359 24.4256 22.2701C24.44 22.3043 24.4579 22.3372 24.4784 22.3676C24.4989 22.398 24.5225 22.4258 24.5484 22.4516C24.5742 22.4775 24.602 22.5011 24.6324 22.5216C24.6932 22.5626 24.7626 22.5919 24.8371 22.6071C24.8743 22.6147 24.9129 22.619 24.9524 22.619C24.9919 22.619 25.0305 22.6147 25.0677 22.6071C25.3284 22.554 25.5238 22.3243 25.5238 22.0476C25.5238 21.7314 25.2686 21.4762 24.9524 21.4762ZM29.1429 21.4762C29.1033 21.4762 29.0648 21.4805 29.0275 21.4881C28.9903 21.4957 28.9546 21.5064 28.9204 21.5208C28.8862 21.5353 28.8533 21.5531 28.8229 21.5737C28.7925 21.5942 28.7647 21.6178 28.7388 21.6436C28.6872 21.6953 28.6449 21.7568 28.6161 21.8251C28.6016 21.8593 28.5909 21.8951 28.5833 21.9323C28.5757 21.9695 28.5714 22.0081 28.5714 22.0476C28.5714 22.0871 28.5757 22.1257 28.5833 22.1629C28.5909 22.2002 28.6016 22.2359 28.6161 22.2701C28.6305 22.3043 28.6484 22.3372 28.6689 22.3676C28.6894 22.398 28.713 22.4258 28.7388 22.4516C28.7647 22.4775 28.7925 22.5011 28.8229 22.5216C28.8533 22.5421 28.8862 22.56 28.9204 22.5744C28.9546 22.5888 28.9903 22.5995 29.0275 22.6071C29.0648 22.6147 29.1033 22.619 29.1429 22.619C29.1824 22.619 29.2209 22.6147 29.2582 22.6071C29.5189 22.554 29.7143 22.3243 29.7143 22.0476C29.7143 21.7314 29.459 21.4762 29.1429 21.4762Z" fill="white"/>
</g>
<defs>
<linearGradient id="paint0_linear_222_13" x1="24" y1="0" x2="24" y2="48" gradientUnits="userSpaceOnUse">
<stop stop-color="#1070BF"/>
<stop offset="1" stop-color="#1C9BEF"/>
</linearGradient>
<clipPath id="clip0_222_13">
<rect width="16" height="16" fill="white" transform="translate(16 15)"/>
</clipPath>
</defs>
</svg>
