<svg width="48" height="48" viewBox="0 0 48 48" fill="none" xmlns="http://www.w3.org/2000/svg">
<circle cx="24" cy="24" r="24" transform="rotate(-90 24 24)" fill="url(#paint0_linear_222_14)"/>
<path d="M24 14.75C21.5145 14.75 19.5 16.7645 19.5 19.25C19.5 22.4645 24 27.5 24 27.5C24 27.5 28.5 22.4645 28.5 19.25C28.5 16.7645 26.4855 14.75 24 14.75ZM24 17.6431C24.888 17.6431 25.6069 18.362 25.6069 19.25C25.6069 20.1372 24.8872 20.8569 24 20.8569C23.1127 20.8569 22.3931 20.138 22.3931 19.25C22.3931 18.362 23.112 17.6431 24 17.6431ZM18.6006 25.25L16.5 30.5H31.5L29.3994 25.25H27.6094C27.2456 25.7983 26.8804 26.306 26.5444 26.75H28.3857L29.2852 29H18.7148L19.6143 26.75H21.4556C21.1196 26.306 20.7544 25.7983 20.3906 25.25H18.6006Z" fill="white"/>
<defs>
<linearGradient id="paint0_linear_222_14" x1="24" y1="0" x2="24" y2="48" gradientUnits="userSpaceOnUse">
<stop stop-color="#1070BF"/>
<stop offset="1" stop-color="#1C9BEF"/>
</linearGradient>
</defs>
</svg>
